<svg xmlns="http://www.w3.org/2000/svg" xmlns:xlink="http://www.w3.org/1999/xlink" width="1024" zoomAndPan="magnify" viewBox="0 0 768 767.999994" height="1024" preserveAspectRatio="xMidYMid meet" version="1.0"><defs><g/><clipPath id="d3a18de265"><path d="M 115.199219 0 L 652.800781 0 C 683.351562 0 712.65625 12.136719 734.257812 33.742188 C 755.863281 55.34375 768 84.648438 768 115.199219 L 768 652.800781 C 768 716.421875 716.421875 768 652.800781 768 L 115.199219 768 C 84.648438 768 55.34375 755.863281 33.742188 734.257812 C 12.136719 712.65625 0 683.351562 0 652.800781 L 0 115.199219 C 0 51.578125 51.578125 0 115.199219 0 Z M 115.199219 0 " clip-rule="nonzero"/></clipPath><clipPath id="0144876091"><path d="M 0 0 L 768 0 L 768 768 L 0 768 Z M 0 0 " clip-rule="nonzero"/></clipPath><clipPath id="85c801c6dc"><path d="M 115.199219 0 L 652.800781 0 C 683.351562 0 712.65625 12.136719 734.257812 33.742188 C 755.863281 55.34375 768 84.648438 768 115.199219 L 768 652.800781 C 768 716.421875 716.421875 768 652.800781 768 L 115.199219 768 C 84.648438 768 55.34375 755.863281 33.742188 734.257812 C 12.136719 712.65625 0 683.351562 0 652.800781 L 0 115.199219 C 0 51.578125 51.578125 0 115.199219 0 Z M 115.199219 0 " clip-rule="nonzero"/></clipPath><clipPath id="042ab210e5"><rect x="0" width="768" y="0" height="768"/></clipPath><clipPath id="fe377216e6"><rect x="0" width="630" y="0" height="330"/></clipPath></defs><g clip-path="url(#d3a18de265)"><g transform="matrix(1, 0, 0, 1, 0, -0.000000000000057351)"><g clip-path="url(#042ab210e5)"><g clip-path="url(#0144876091)"><g clip-path="url(#85c801c6dc)"><rect x="-168.96" width="1105.92" fill="#222222" height="1105.919991" y="-168.959999" fill-opacity="1"/></g></g></g></g></g><g transform="matrix(1, 0, 0, 1, 76, 217)"><g clip-path="url(#fe377216e6)"><g fill="#ffffff" fill-opacity="1"><g transform="translate(0.799999, 229.058111)"><g><path d="M 88.265625 -173.78125 C 103.972656 -173.78125 117.816406 -170.210938 129.796875 -163.078125 C 141.773438 -155.941406 151.046875 -145.6875 157.609375 -132.3125 C 164.179688 -118.945312 167.46875 -103.304688 167.46875 -85.390625 C 167.46875 -67.460938 164.179688 -51.816406 157.609375 -38.453125 C 151.046875 -25.085938 141.773438 -14.8125 129.796875 -7.625 C 117.816406 -0.4375 103.972656 3.15625 88.265625 3.15625 C 72.546875 3.15625 58.695312 -0.4375 46.71875 -7.625 C 34.738281 -14.8125 25.46875 -25.085938 18.90625 -38.453125 C 12.34375 -51.816406 9.0625 -67.460938 9.0625 -85.390625 C 9.0625 -103.304688 12.34375 -118.945312 18.90625 -132.3125 C 25.46875 -145.6875 34.738281 -155.941406 46.71875 -163.078125 C 58.695312 -170.210938 72.546875 -173.78125 88.265625 -173.78125 Z M 88.265625 -141.15625 C 74.941406 -141.15625 64.828125 -136.363281 57.921875 -126.78125 C 51.023438 -117.195312 47.578125 -103.398438 47.578125 -85.390625 C 47.578125 -67.367188 51.023438 -53.539062 57.921875 -43.90625 C 64.828125 -34.28125 74.941406 -29.46875 88.265625 -29.46875 C 101.578125 -29.46875 111.679688 -34.28125 118.578125 -43.90625 C 125.484375 -53.539062 128.9375 -67.367188 128.9375 -85.390625 C 128.9375 -103.398438 125.484375 -117.195312 118.578125 -126.78125 C 111.679688 -136.363281 101.578125 -141.15625 88.265625 -141.15625 Z M 88.265625 -141.15625 "/></g></g></g><g fill="#ffffff" fill-opacity="1"><g transform="translate(153.153836, 229.058111)"><g><path d="M 153.09375 -170.625 C 156.445312 -170.625 158.84375 -169.90625 160.28125 -168.46875 C 161.71875 -167.03125 162.4375 -164.632812 162.4375 -161.28125 L 162.4375 -100.625 C 162.4375 -97.457031 161.117188 -95.15625 158.484375 -93.71875 C 155.847656 -92.28125 151.796875 -91.5625 146.328125 -91.5625 C 141.054688 -91.5625 137.390625 -92.253906 135.328125 -93.640625 C 133.273438 -95.035156 132.25 -97.363281 132.25 -100.625 L 132.25 -139.71875 L 106.234375 -139.71875 L 106.234375 -29.46875 L 137.28125 -29.46875 C 139.582031 -29.46875 141.351562 -29.0625 142.59375 -28.25 C 143.84375 -27.4375 144.773438 -25.972656 145.390625 -23.859375 C 146.015625 -21.753906 146.328125 -18.6875 146.328125 -14.65625 C 146.328125 -10.632812 146.015625 -7.566406 145.390625 -5.453125 C 144.773438 -3.347656 143.84375 -1.910156 142.59375 -1.140625 C 141.351562 -0.378906 139.582031 0 137.28125 0 L 39.25 0 C 36.945312 0 35.171875 -0.378906 33.921875 -1.140625 C 32.679688 -1.910156 31.75 -3.347656 31.125 -5.453125 C 30.5 -7.566406 30.1875 -10.632812 30.1875 -14.65625 C 30.1875 -18.6875 30.5 -21.753906 31.125 -23.859375 C 31.75 -25.972656 32.679688 -27.4375 33.921875 -28.25 C 35.171875 -29.0625 36.945312 -29.46875 39.25 -29.46875 L 70.296875 -29.46875 L 70.296875 -139.71875 L 44.28125 -139.71875 L 44.28125 -100.625 C 44.28125 -97.457031 42.960938 -95.15625 40.328125 -93.71875 C 37.691406 -92.28125 33.640625 -91.5625 28.171875 -91.5625 C 22.898438 -91.5625 19.234375 -92.253906 17.171875 -93.640625 C 15.117188 -95.035156 14.09375 -97.363281 14.09375 -100.625 L 14.09375 -161.28125 C 14.09375 -164.632812 14.832031 -167.03125 16.3125 -168.46875 C 17.800781 -169.90625 20.175781 -170.625 23.4375 -170.625 Z M 153.09375 -170.625 "/></g></g></g><g fill="#ffffff" fill-opacity="1"><g transform="translate(305.507673, 229.058111)"><g><path d="M 153.09375 -170.625 C 156.445312 -170.625 158.84375 -169.90625 160.28125 -168.46875 C 161.71875 -167.03125 162.4375 -164.632812 162.4375 -161.28125 L 162.4375 -100.625 C 162.4375 -97.457031 161.117188 -95.15625 158.484375 -93.71875 C 155.847656 -92.28125 151.796875 -91.5625 146.328125 -91.5625 C 141.054688 -91.5625 137.390625 -92.253906 135.328125 -93.640625 C 133.273438 -95.035156 132.25 -97.363281 132.25 -100.625 L 132.25 -139.71875 L 106.234375 -139.71875 L 106.234375 -29.46875 L 137.28125 -29.46875 C 139.582031 -29.46875 141.351562 -29.0625 142.59375 -28.25 C 143.84375 -27.4375 144.773438 -25.972656 145.390625 -23.859375 C 146.015625 -21.753906 146.328125 -18.6875 146.328125 -14.65625 C 146.328125 -10.632812 146.015625 -7.566406 145.390625 -5.453125 C 144.773438 -3.347656 143.84375 -1.910156 142.59375 -1.140625 C 141.351562 -0.378906 139.582031 0 137.28125 0 L 39.25 0 C 36.945312 0 35.171875 -0.378906 33.921875 -1.140625 C 32.679688 -1.910156 31.75 -3.347656 31.125 -5.453125 C 30.5 -7.566406 30.1875 -10.632812 30.1875 -14.65625 C 30.1875 -18.6875 30.5 -21.753906 31.125 -23.859375 C 31.75 -25.972656 32.679688 -27.4375 33.921875 -28.25 C 35.171875 -29.0625 36.945312 -29.46875 39.25 -29.46875 L 70.296875 -29.46875 L 70.296875 -139.71875 L 44.28125 -139.71875 L 44.28125 -100.625 C 44.28125 -97.457031 42.960938 -95.15625 40.328125 -93.71875 C 37.691406 -92.28125 33.640625 -91.5625 28.171875 -91.5625 C 22.898438 -91.5625 19.234375 -92.253906 17.171875 -93.640625 C 15.117188 -95.035156 14.09375 -97.363281 14.09375 -100.625 L 14.09375 -161.28125 C 14.09375 -164.632812 14.832031 -167.03125 16.3125 -168.46875 C 17.800781 -169.90625 20.175781 -170.625 23.4375 -170.625 Z M 153.09375 -170.625 "/></g></g></g><g fill="#ffffff" fill-opacity="1"><g transform="translate(457.86151, 229.058111)"><g><path d="M 88.265625 -173.78125 C 103.972656 -173.78125 117.816406 -170.210938 129.796875 -163.078125 C 141.773438 -155.941406 151.046875 -145.6875 157.609375 -132.3125 C 164.179688 -118.945312 167.46875 -103.304688 167.46875 -85.390625 C 167.46875 -67.460938 164.179688 -51.816406 157.609375 -38.453125 C 151.046875 -25.085938 141.773438 -14.8125 129.796875 -7.625 C 117.816406 -0.4375 103.972656 3.15625 88.265625 3.15625 C 72.546875 3.15625 58.695312 -0.4375 46.71875 -7.625 C 34.738281 -14.8125 25.46875 -25.085938 18.90625 -38.453125 C 12.34375 -51.816406 9.0625 -67.460938 9.0625 -85.390625 C 9.0625 -103.304688 12.34375 -118.945312 18.90625 -132.3125 C 25.46875 -145.6875 34.738281 -155.941406 46.71875 -163.078125 C 58.695312 -170.210938 72.546875 -173.78125 88.265625 -173.78125 Z M 88.265625 -141.15625 C 74.941406 -141.15625 64.828125 -136.363281 57.921875 -126.78125 C 51.023438 -117.195312 47.578125 -103.398438 47.578125 -85.390625 C 47.578125 -67.367188 51.023438 -53.539062 57.921875 -43.90625 C 64.828125 -34.28125 74.941406 -29.46875 88.265625 -29.46875 C 101.578125 -29.46875 111.679688 -34.28125 118.578125 -43.90625 C 125.484375 -53.539062 128.9375 -67.367188 128.9375 -85.390625 C 128.9375 -103.398438 125.484375 -117.195312 118.578125 -126.78125 C 111.679688 -136.363281 101.578125 -141.15625 88.265625 -141.15625 Z M 88.265625 -141.15625 "/></g></g></g></g></g></svg>