<svg xmlns="http://www.w3.org/2000/svg" xmlns:xlink="http://www.w3.org/1999/xlink" width="1024" zoomAndPan="magnify" viewBox="0 0 768 767.999994" height="1024" preserveAspectRatio="xMidYMid meet" version="1.0"><defs><g/><clipPath id="fa7c5e606b"><path d="M 115.199219 0 L 652.800781 0 C 683.351562 0 712.65625 12.136719 734.257812 33.742188 C 755.863281 55.34375 768 84.648438 768 115.199219 L 768 652.800781 C 768 716.421875 716.421875 768 652.800781 768 L 115.199219 768 C 84.648438 768 55.34375 755.863281 33.742188 734.257812 C 12.136719 712.65625 0 683.351562 0 652.800781 L 0 115.199219 C 0 51.578125 51.578125 0 115.199219 0 Z M 115.199219 0 " clip-rule="nonzero"/></clipPath><clipPath id="8935ff4013"><path d="M 0 0 L 768 0 L 768 768 L 0 768 Z M 0 0 " clip-rule="nonzero"/></clipPath><clipPath id="f5ac4ba255"><path d="M 115.199219 0 L 652.800781 0 C 683.351562 0 712.65625 12.136719 734.257812 33.742188 C 755.863281 55.34375 768 84.648438 768 115.199219 L 768 652.800781 C 768 716.421875 716.421875 768 652.800781 768 L 115.199219 768 C 84.648438 768 55.34375 755.863281 33.742188 734.257812 C 12.136719 712.65625 0 683.351562 0 652.800781 L 0 115.199219 C 0 51.578125 51.578125 0 115.199219 0 Z M 115.199219 0 " clip-rule="nonzero"/></clipPath><clipPath id="0f34a017a9"><rect x="0" width="768" y="0" height="768"/></clipPath><clipPath id="d64060dfe8"><rect x="0" width="616" y="0" height="166"/></clipPath></defs><g clip-path="url(#fa7c5e606b)"><g transform="matrix(1, 0, 0, 1, 0, -0.000000000000057351)"><g clip-path="url(#0f34a017a9)"><g clip-path="url(#8935ff4013)"><g clip-path="url(#f5ac4ba255)"><rect x="-168.96" width="1105.92" fill="#222222" height="1105.919991" y="-168.959999" fill-opacity="1"/></g></g></g></g></g><g transform="matrix(1, 0, 0, 1, 76, 300)"><g clip-path="url(#d64060dfe8)"><g fill="#ffffff" fill-opacity="1"><g transform="translate(0.799999, 115.029042)"><g><path d="M 44.125 -86.890625 C 51.976562 -86.890625 58.898438 -85.101562 64.890625 -81.53125 C 70.878906 -77.96875 75.515625 -72.84375 78.796875 -66.15625 C 82.085938 -59.46875 83.734375 -51.644531 83.734375 -42.6875 C 83.734375 -33.726562 82.085938 -25.90625 78.796875 -19.21875 C 75.515625 -12.539062 70.878906 -7.40625 64.890625 -3.8125 C 58.898438 -0.21875 51.976562 1.578125 44.125 1.578125 C 36.269531 1.578125 29.347656 -0.21875 23.359375 -3.8125 C 17.367188 -7.40625 12.734375 -12.539062 9.453125 -19.21875 C 6.171875 -25.90625 4.53125 -33.726562 4.53125 -42.6875 C 4.53125 -51.644531 6.171875 -59.46875 9.453125 -66.15625 C 12.734375 -72.84375 17.367188 -77.96875 23.359375 -81.53125 C 29.347656 -85.101562 36.269531 -86.890625 44.125 -86.890625 Z M 44.125 -70.578125 C 37.46875 -70.578125 32.410156 -68.179688 28.953125 -63.390625 C 25.503906 -58.597656 23.78125 -51.695312 23.78125 -42.6875 C 23.78125 -33.675781 25.503906 -26.765625 28.953125 -21.953125 C 32.410156 -17.140625 37.46875 -14.734375 44.125 -14.734375 C 50.789062 -14.734375 55.847656 -17.140625 59.296875 -21.953125 C 62.742188 -26.765625 64.46875 -33.675781 64.46875 -42.6875 C 64.46875 -51.695312 62.742188 -58.597656 59.296875 -63.390625 C 55.847656 -68.179688 50.789062 -70.578125 44.125 -70.578125 Z M 44.125 -70.578125 "/></g></g></g><g fill="#ffffff" fill-opacity="1"><g transform="translate(76.976918, 115.029042)"><g><path d="M 76.546875 -85.3125 C 78.222656 -85.3125 79.421875 -84.953125 80.140625 -84.234375 C 80.859375 -83.515625 81.21875 -82.316406 81.21875 -80.640625 L 81.21875 -50.3125 C 81.21875 -48.726562 80.554688 -47.578125 79.234375 -46.859375 C 77.921875 -46.140625 75.894531 -45.78125 73.15625 -45.78125 C 70.519531 -45.78125 68.6875 -46.125 67.65625 -46.8125 C 66.632812 -47.507812 66.125 -48.675781 66.125 -50.3125 L 66.125 -69.859375 L 53.109375 -69.859375 L 53.109375 -14.734375 L 68.640625 -14.734375 C 69.785156 -14.734375 70.671875 -14.53125 71.296875 -14.125 C 71.921875 -13.71875 72.382812 -12.984375 72.6875 -11.921875 C 73 -10.867188 73.15625 -9.335938 73.15625 -7.328125 C 73.15625 -5.316406 73 -3.785156 72.6875 -2.734375 C 72.382812 -1.679688 71.921875 -0.960938 71.296875 -0.578125 C 70.671875 -0.191406 69.785156 0 68.640625 0 L 19.625 0 C 18.46875 0 17.578125 -0.191406 16.953125 -0.578125 C 16.335938 -0.960938 15.875 -1.679688 15.5625 -2.734375 C 15.25 -3.785156 15.09375 -5.316406 15.09375 -7.328125 C 15.09375 -9.335938 15.25 -10.867188 15.5625 -11.921875 C 15.875 -12.984375 16.335938 -13.71875 16.953125 -14.125 C 17.578125 -14.53125 18.46875 -14.734375 19.625 -14.734375 L 35.140625 -14.734375 L 35.140625 -69.859375 L 22.140625 -69.859375 L 22.140625 -50.3125 C 22.140625 -48.726562 21.476562 -47.578125 20.15625 -46.859375 C 18.84375 -46.140625 16.820312 -45.78125 14.09375 -45.78125 C 11.457031 -45.78125 9.625 -46.125 8.59375 -46.8125 C 7.5625 -47.507812 7.046875 -48.675781 7.046875 -50.3125 L 7.046875 -80.640625 C 7.046875 -82.316406 7.414062 -83.515625 8.15625 -84.234375 C 8.894531 -84.953125 10.082031 -85.3125 11.71875 -85.3125 Z M 76.546875 -85.3125 "/></g></g></g><g fill="#ffffff" fill-opacity="1"><g transform="translate(153.153836, 115.029042)"><g><path d="M 76.546875 -85.3125 C 78.222656 -85.3125 79.421875 -84.953125 80.140625 -84.234375 C 80.859375 -83.515625 81.21875 -82.316406 81.21875 -80.640625 L 81.21875 -50.3125 C 81.21875 -48.726562 80.554688 -47.578125 79.234375 -46.859375 C 77.921875 -46.140625 75.894531 -45.78125 73.15625 -45.78125 C 70.519531 -45.78125 68.6875 -46.125 67.65625 -46.8125 C 66.632812 -47.507812 66.125 -48.675781 66.125 -50.3125 L 66.125 -69.859375 L 53.109375 -69.859375 L 53.109375 -14.734375 L 68.640625 -14.734375 C 69.785156 -14.734375 70.671875 -14.53125 71.296875 -14.125 C 71.921875 -13.71875 72.382812 -12.984375 72.6875 -11.921875 C 73 -10.867188 73.15625 -9.335938 73.15625 -7.328125 C 73.15625 -5.316406 73 -3.785156 72.6875 -2.734375 C 72.382812 -1.679688 71.921875 -0.960938 71.296875 -0.578125 C 70.671875 -0.191406 69.785156 0 68.640625 0 L 19.625 0 C 18.46875 0 17.578125 -0.191406 16.953125 -0.578125 C 16.335938 -0.960938 15.875 -1.679688 15.5625 -2.734375 C 15.25 -3.785156 15.09375 -5.316406 15.09375 -7.328125 C 15.09375 -9.335938 15.25 -10.867188 15.5625 -11.921875 C 15.875 -12.984375 16.335938 -13.71875 16.953125 -14.125 C 17.578125 -14.53125 18.46875 -14.734375 19.625 -14.734375 L 35.140625 -14.734375 L 35.140625 -69.859375 L 22.140625 -69.859375 L 22.140625 -50.3125 C 22.140625 -48.726562 21.476562 -47.578125 20.15625 -46.859375 C 18.84375 -46.140625 16.820312 -45.78125 14.09375 -45.78125 C 11.457031 -45.78125 9.625 -46.125 8.59375 -46.8125 C 7.5625 -47.507812 7.046875 -48.675781 7.046875 -50.3125 L 7.046875 -80.640625 C 7.046875 -82.316406 7.414062 -83.515625 8.15625 -84.234375 C 8.894531 -84.953125 10.082031 -85.3125 11.71875 -85.3125 Z M 76.546875 -85.3125 "/></g></g></g><g fill="#ffffff" fill-opacity="1"><g transform="translate(229.330755, 115.029042)"><g><path d="M 44.125 -86.890625 C 51.976562 -86.890625 58.898438 -85.101562 64.890625 -81.53125 C 70.878906 -77.96875 75.515625 -72.84375 78.796875 -66.15625 C 82.085938 -59.46875 83.734375 -51.644531 83.734375 -42.6875 C 83.734375 -33.726562 82.085938 -25.90625 78.796875 -19.21875 C 75.515625 -12.539062 70.878906 -7.40625 64.890625 -3.8125 C 58.898438 -0.21875 51.976562 1.578125 44.125 1.578125 C 36.269531 1.578125 29.347656 -0.21875 23.359375 -3.8125 C 17.367188 -7.40625 12.734375 -12.539062 9.453125 -19.21875 C 6.171875 -25.90625 4.53125 -33.726562 4.53125 -42.6875 C 4.53125 -51.644531 6.171875 -59.46875 9.453125 -66.15625 C 12.734375 -72.84375 17.367188 -77.96875 23.359375 -81.53125 C 29.347656 -85.101562 36.269531 -86.890625 44.125 -86.890625 Z M 44.125 -70.578125 C 37.46875 -70.578125 32.410156 -68.179688 28.953125 -63.390625 C 25.503906 -58.597656 23.78125 -51.695312 23.78125 -42.6875 C 23.78125 -33.675781 25.503906 -26.765625 28.953125 -21.953125 C 32.410156 -17.140625 37.46875 -14.734375 44.125 -14.734375 C 50.789062 -14.734375 55.847656 -17.140625 59.296875 -21.953125 C 62.742188 -26.765625 64.46875 -33.675781 64.46875 -42.6875 C 64.46875 -51.695312 62.742188 -58.597656 59.296875 -63.390625 C 55.847656 -68.179688 50.789062 -70.578125 44.125 -70.578125 Z M 44.125 -70.578125 "/></g></g></g><g fill="#ffffff" fill-opacity="1"><g transform="translate(305.507673, 115.029042)"><g><path d="M 81.21875 -85.3125 C 82.363281 -85.3125 83.25 -85.109375 83.875 -84.703125 C 84.5 -84.296875 84.960938 -83.5625 85.265625 -82.5 C 85.578125 -81.445312 85.734375 -79.914062 85.734375 -77.90625 C 85.734375 -75.894531 85.578125 -74.359375 85.265625 -73.296875 C 84.960938 -72.242188 84.5 -71.523438 83.875 -71.140625 C 83.25 -70.765625 82.363281 -70.578125 81.21875 -70.578125 L 78.125 -70.578125 L 52.96875 -46.0625 C 55.644531 -45.925781 58.085938 -45.195312 60.296875 -43.875 C 62.503906 -42.5625 64.421875 -40.753906 66.046875 -38.453125 C 67.148438 -36.867188 68.15625 -35.222656 69.0625 -33.515625 C 69.976562 -31.816406 71.007812 -29.75 72.15625 -27.3125 C 73.882812 -23.757812 75.082031 -21.410156 75.75 -20.265625 C 76.800781 -18.492188 77.898438 -17.128906 79.046875 -16.171875 C 80.203125 -15.210938 81.523438 -14.734375 83.015625 -14.734375 L 83.734375 -14.734375 C 84.878906 -14.734375 85.765625 -14.53125 86.390625 -14.125 C 87.015625 -13.71875 87.476562 -12.984375 87.78125 -11.921875 C 88.09375 -10.867188 88.25 -9.335938 88.25 -7.328125 C 88.25 -5.316406 88.09375 -3.785156 87.78125 -2.734375 C 87.476562 -1.679688 87.015625 -0.960938 86.390625 -0.578125 C 85.765625 -0.191406 84.878906 0 83.734375 0 L 73.734375 0 C 70.816406 0 68.335938 -0.894531 66.296875 -2.6875 C 64.265625 -4.488281 62.382812 -6.992188 60.65625 -10.203125 C 59.550781 -12.265625 58.398438 -14.660156 57.203125 -17.390625 C 56.335938 -19.210938 55.453125 -21.03125 54.546875 -22.84375 C 53.640625 -24.664062 52.800781 -26.175781 52.03125 -27.375 C 50.789062 -29.25 49.398438 -30.722656 47.859375 -31.796875 C 46.328125 -32.878906 44.75 -33.421875 43.125 -33.421875 C 41.007812 -33.421875 39.113281 -32.601562 37.4375 -30.96875 L 33.78125 -27.375 L 33.78125 -14.734375 L 42.046875 -14.734375 C 43.191406 -14.734375 44.078125 -14.53125 44.703125 -14.125 C 45.328125 -13.71875 45.796875 -12.984375 46.109375 -11.921875 C 46.421875 -10.867188 46.578125 -9.335938 46.578125 -7.328125 C 46.578125 -5.316406 46.421875 -3.785156 46.109375 -2.734375 C 45.796875 -1.679688 45.328125 -0.960938 44.703125 -0.578125 C 44.078125 -0.191406 43.191406 0 42.046875 0 L 8.125 0 C 6.96875 0 6.078125 -0.191406 5.453125 -0.578125 C 4.835938 -0.960938 4.375 -1.679688 4.0625 -2.734375 C 3.75 -3.785156 3.59375 -5.316406 3.59375 -7.328125 C 3.59375 -9.335938 3.75 -10.867188 4.0625 -11.921875 C 4.375 -12.984375 4.835938 -13.71875 5.453125 -14.125 C 6.078125 -14.53125 6.96875 -14.734375 8.125 -14.734375 L 15.8125 -14.734375 L 15.8125 -70.578125 L 8.125 -70.578125 C 6.96875 -70.578125 6.078125 -70.765625 5.453125 -71.140625 C 4.835938 -71.523438 4.375 -72.242188 4.0625 -73.296875 C 3.75 -74.359375 3.59375 -75.894531 3.59375 -77.90625 C 3.59375 -79.914062 3.75 -81.445312 4.0625 -82.5 C 4.375 -83.5625 4.835938 -84.296875 5.453125 -84.703125 C 6.078125 -85.109375 6.96875 -85.3125 8.125 -85.3125 L 37.15625 -85.3125 C 38.300781 -85.3125 39.1875 -85.109375 39.8125 -84.703125 C 40.4375 -84.296875 40.90625 -83.5625 41.21875 -82.5 C 41.53125 -81.445312 41.6875 -79.914062 41.6875 -77.90625 C 41.6875 -75.894531 41.53125 -74.359375 41.21875 -73.296875 C 40.90625 -72.242188 40.4375 -71.523438 39.8125 -71.140625 C 39.1875 -70.765625 38.300781 -70.578125 37.15625 -70.578125 L 33.78125 -70.578125 L 33.78125 -47.578125 L 57.0625 -70.578125 L 53.25 -70.578125 C 52.101562 -70.578125 51.21875 -70.765625 50.59375 -71.140625 C 49.96875 -71.523438 49.5 -72.242188 49.1875 -73.296875 C 48.882812 -74.359375 48.734375 -75.894531 48.734375 -77.90625 C 48.734375 -79.914062 48.882812 -81.445312 49.1875 -82.5 C 49.5 -83.5625 49.96875 -84.296875 50.59375 -84.703125 C 51.21875 -85.109375 52.101562 -85.3125 53.25 -85.3125 Z M 81.21875 -85.3125 "/></g></g></g><g fill="#ffffff" fill-opacity="1"><g transform="translate(381.684592, 115.029042)"><g><path d="M 44.125 -86.890625 C 51.976562 -86.890625 58.898438 -85.101562 64.890625 -81.53125 C 70.878906 -77.96875 75.515625 -72.84375 78.796875 -66.15625 C 82.085938 -59.46875 83.734375 -51.644531 83.734375 -42.6875 C 83.734375 -33.726562 82.085938 -25.90625 78.796875 -19.21875 C 75.515625 -12.539062 70.878906 -7.40625 64.890625 -3.8125 C 58.898438 -0.21875 51.976562 1.578125 44.125 1.578125 C 36.269531 1.578125 29.347656 -0.21875 23.359375 -3.8125 C 17.367188 -7.40625 12.734375 -12.539062 9.453125 -19.21875 C 6.171875 -25.90625 4.53125 -33.726562 4.53125 -42.6875 C 4.53125 -51.644531 6.171875 -59.46875 9.453125 -66.15625 C 12.734375 -72.84375 17.367188 -77.96875 23.359375 -81.53125 C 29.347656 -85.101562 36.269531 -86.890625 44.125 -86.890625 Z M 44.125 -70.578125 C 37.46875 -70.578125 32.410156 -68.179688 28.953125 -63.390625 C 25.503906 -58.597656 23.78125 -51.695312 23.78125 -42.6875 C 23.78125 -33.675781 25.503906 -26.765625 28.953125 -21.953125 C 32.410156 -17.140625 37.46875 -14.734375 44.125 -14.734375 C 50.789062 -14.734375 55.847656 -17.140625 59.296875 -21.953125 C 62.742188 -26.765625 64.46875 -33.675781 64.46875 -42.6875 C 64.46875 -51.695312 62.742188 -58.597656 59.296875 -63.390625 C 55.847656 -68.179688 50.789062 -70.578125 44.125 -70.578125 Z M 44.125 -70.578125 "/></g></g></g><g fill="#ffffff" fill-opacity="1"><g transform="translate(457.86151, 115.029042)"><g><path d="M 42.6875 -85.3125 C 51.070312 -85.3125 58.28125 -83.65625 64.3125 -80.34375 C 70.351562 -77.039062 74.976562 -72.191406 78.1875 -65.796875 C 81.40625 -59.398438 83.015625 -51.695312 83.015625 -42.6875 C 83.015625 -33.675781 81.40625 -25.972656 78.1875 -19.578125 C 74.976562 -13.179688 70.351562 -8.316406 64.3125 -4.984375 C 58.28125 -1.660156 51.070312 0 42.6875 0 L 8.84375 0 C 7.6875 0 6.796875 -0.191406 6.171875 -0.578125 C 5.554688 -0.960938 5.09375 -1.679688 4.78125 -2.734375 C 4.46875 -3.785156 4.3125 -5.316406 4.3125 -7.328125 C 4.3125 -9.335938 4.46875 -10.867188 4.78125 -11.921875 C 5.09375 -12.984375 5.554688 -13.71875 6.171875 -14.125 C 6.796875 -14.53125 7.6875 -14.734375 8.84375 -14.734375 L 15.8125 -14.734375 L 15.8125 -70.578125 L 8.84375 -70.578125 C 7.6875 -70.578125 6.796875 -70.765625 6.171875 -71.140625 C 5.554688 -71.523438 5.09375 -72.242188 4.78125 -73.296875 C 4.46875 -74.359375 4.3125 -75.894531 4.3125 -77.90625 C 4.3125 -79.914062 4.46875 -81.445312 4.78125 -82.5 C 5.09375 -83.5625 5.554688 -84.296875 6.171875 -84.703125 C 6.796875 -85.109375 7.6875 -85.3125 8.84375 -85.3125 Z M 33.78125 -15.453125 L 41.25 -15.453125 C 48.675781 -15.453125 54.28125 -17.765625 58.0625 -22.390625 C 61.851562 -27.015625 63.75 -33.78125 63.75 -42.6875 C 63.75 -51.601562 61.851562 -58.359375 58.0625 -62.953125 C 54.28125 -67.554688 48.675781 -69.859375 41.25 -69.859375 L 33.78125 -69.859375 Z M 33.78125 -15.453125 "/></g></g></g><g fill="#ffffff" fill-opacity="1"><g transform="translate(534.038458, 115.029042)"><g><path d="M 74.390625 -85.3125 C 76.066406 -85.3125 77.265625 -84.953125 77.984375 -84.234375 C 78.703125 -83.515625 79.0625 -82.316406 79.0625 -80.640625 L 79.0625 -58.9375 C 79.0625 -57.300781 78.363281 -56.132812 76.96875 -55.4375 C 75.582031 -54.75 73.351562 -54.40625 70.28125 -54.40625 C 67.3125 -54.40625 65.273438 -54.738281 64.171875 -55.40625 C 63.078125 -56.082031 62.53125 -57.257812 62.53125 -58.9375 L 62.53125 -69.859375 L 33.78125 -69.859375 L 33.78125 -51.671875 L 51.3125 -51.671875 C 52.988281 -51.671875 54.160156 -51.117188 54.828125 -50.015625 C 55.503906 -48.921875 55.84375 -46.882812 55.84375 -43.90625 C 55.84375 -40.9375 55.503906 -38.910156 54.828125 -37.828125 C 54.160156 -36.753906 52.988281 -36.21875 51.3125 -36.21875 L 33.78125 -36.21875 L 33.78125 -15.453125 L 63.25 -15.453125 L 63.25 -29.96875 C 63.25 -31.59375 63.953125 -32.753906 65.359375 -33.453125 C 66.773438 -34.148438 69.085938 -34.5 72.296875 -34.5 C 75.460938 -34.5 77.617188 -34.160156 78.765625 -33.484375 C 79.921875 -32.816406 80.5 -31.644531 80.5 -29.96875 L 80.5 -4.671875 C 80.5 -3.046875 80.140625 -1.859375 79.421875 -1.109375 C 78.703125 -0.367188 77.503906 0 75.828125 0 L 8.84375 0 C 7.6875 0 6.796875 -0.191406 6.171875 -0.578125 C 5.554688 -0.960938 5.09375 -1.679688 4.78125 -2.734375 C 4.46875 -3.785156 4.3125 -5.316406 4.3125 -7.328125 C 4.3125 -9.335938 4.46875 -10.867188 4.78125 -11.921875 C 5.09375 -12.984375 5.554688 -13.71875 6.171875 -14.125 C 6.796875 -14.53125 7.6875 -14.734375 8.84375 -14.734375 L 15.8125 -14.734375 L 15.8125 -70.578125 L 8.84375 -70.578125 C 7.6875 -70.578125 6.796875 -70.765625 6.171875 -71.140625 C 5.554688 -71.523438 5.09375 -72.242188 4.78125 -73.296875 C 4.46875 -74.359375 4.3125 -75.894531 4.3125 -77.90625 C 4.3125 -79.914062 4.46875 -81.445312 4.78125 -82.5 C 5.09375 -83.5625 5.554688 -84.296875 6.171875 -84.703125 C 6.796875 -85.109375 7.6875 -85.3125 8.84375 -85.3125 Z M 74.390625 -85.3125 "/></g></g></g></g></g></svg>